<?xml version="1.0" encoding="utf-8"?>
<!-- Generator: Adobe Illustrator 26.0.2, SVG Export Plug-In . SVG Version: 6.00 Build 0)  -->
<svg version="1.1" id="Layer_1" xmlns="http://www.w3.org/2000/svg" xmlns:xlink="http://www.w3.org/1999/xlink" x="0px" y="0px"
	 viewBox="0 0 600.5 150.1" style="enable-background:new 0 0 600.5 150.1;" xml:space="preserve">
<style type="text/css">
	.st0{display:none;fill:#FFFFFF;}
	.st1{fill:none;stroke:#000000;stroke-width:0.7734;stroke-miterlimit:10;}
	.st2{display:none;fill:#C71D4A;}
	.st3{display:none;}
	.st4{display:inline;fill:#FFFFFF;}
	.st5{fill:none;stroke:#000000;stroke-miterlimit:10;}
	.st6{fill:none;stroke:#000000;stroke-width:0.6432;stroke-miterlimit:10;}
	.st7{fill:#D41C57;}
	.st8{fill:url(#SVGID_1_);}
	.st9{fill:url(#SVGID_00000000931115664208435900000003903234087562523778_);}
	.st10{fill:none;stroke:#000000;stroke-width:0.534;stroke-miterlimit:10;}
	.st11{fill:url(#SVGID_00000080195032483695854900000016703695956767079817_);}
	.st12{fill:url(#SVGID_00000025409659040740142330000008083044707296426423_);}
	.st13{fill:#FFFFFF;}
	.st14{fill:#E0E0E0;}
	.st15{fill:url(#SVGID_00000127756042646880862040000010695179933514487720_);}
	.st16{fill:url(#SVGID_00000001651595039242231780000016922612876074295987_);}
	.st17{fill:none;stroke:#000000;stroke-width:0.6772;stroke-miterlimit:10;}
	.st18{fill:url(#SVGID_00000069359960390214087270000016431485936397240968_);}
	.st19{fill:url(#SVGID_00000101103014552021188020000014754672548733335472_);}
	.st20{fill:url(#SVGID_00000008856079652267322590000003921491261694235281_);}
	.st21{fill:url(#SVGID_00000079453237840839561770000003322800184984018068_);}
</style>
<rect x="-111.7" y="-138.1" class="st0" width="841.9" height="425.2"/>
<g>
	<g>
		<path class="st7" d="M75.3,2.4C35.2,2.4,2.7,34.9,2.7,75s32.5,72.6,72.6,72.6c27.1,0,50.7-14.8,63.2-36.8l-32-18.3l-31.1,18
			l-31.1-18v-36l31.1-18l31.1,18L138,38.2C125.4,16.8,102,2.4,75.3,2.4z"/>
	</g>
</g>
<g>
	<linearGradient id="SVGID_1_" gradientUnits="userSpaceOnUse" x1="110.7897" y1="75.6764" x2="-201.892" y2="69.3361">
		<stop  offset="0" style="stop-color:#D41D55"/>
		<stop  offset="0.3928" style="stop-color:#951C54"/>
	</linearGradient>
	<path class="st8" d="M25.9,75.3c0-36.3,26.5-66.4,61.2-72c-3.8-0.6-7.6-1-11.6-1c-40.2,0-72.8,32.8-72.8,73s32.6,72.3,72.8,72.3
		c3.9,0,7.8-0.3,11.6-0.9C52.4,141.1,25.9,111.6,25.9,75.3z"/>
</g>
<linearGradient id="SVGID_00000122686682295669947360000000255149111864788391_" gradientUnits="userSpaceOnUse" x1="111.1184" y1="51.7294" x2="91.2117" y2="-7.681">
	<stop  offset="0" style="stop-color:#D41D55"/>
	<stop  offset="0.7279" style="stop-color:#951C54"/>
</linearGradient>
<path style="fill:url(#SVGID_00000122686682295669947360000000255149111864788391_);" d="M75.3,38.6c0,0,27.4-18.1,62.7-0.3
	l-31.5,18.3L75.3,38.6z"/>
<g>
	<path d="M139.9,79c0-4,0.8-7.7,2.3-11.2c1.5-3.5,3.6-6.5,6.2-9.1c2.6-2.6,5.6-4.7,9.1-6.2c3.5-1.5,7.2-2.3,11.2-2.3
		c5.4,0,10.3,1.3,14.9,4c2,1.2,3.9,2.6,5.5,4.3c1.6,1.6,2.9,3.4,3.9,5.2c0.4,0.7,0.6,1.5,0.6,2.3c0,1.3-0.4,2.3-1.2,3.1
		c-0.8,0.8-1.8,1.2-3.1,1.2c-1.1,0-2-0.2-2.5-0.7c-0.5-0.4-1-1-1.5-1.8c-2.1-2.8-4.6-5.1-7.5-6.7c-2.9-1.6-5.9-2.4-9.1-2.4
		c-2.7,0-5.3,0.5-7.7,1.5c-2.5,1-4.7,2.5-6.5,4.3c-1.9,1.9-3.3,4-4.3,6.5c-1,2.5-1.5,5.1-1.5,7.7c0,2.7,0.5,5.3,1.5,7.7
		c1,2.5,2.5,4.7,4.3,6.5c1.9,1.9,4,3.3,6.5,4.3c2.5,1,5.1,1.5,7.7,1.5c3.8,0,7.3-1,10.5-2.9c0.5-0.3,1.1-0.8,1.7-1.3
		c0.7-0.6,1.3-1.2,2-1.8c0.6-0.6,1.3-1.3,1.8-2c0.6-0.7,1-1.3,1.3-1.8c1.2-2.1,2.6-3.2,4.1-3.2c1.1,0,2.1,0.3,2.9,1
		c0.8,0.7,1.2,1.6,1.2,2.7c0,1.1-0.2,2-0.6,2.9c-1,2.1-2.3,4-4,5.8c-1.7,1.8-3.6,3.3-5.7,4.7c-4.6,2.9-9.7,4.4-15.4,4.4
		c-4,0-7.7-0.8-11.2-2.3c-3.5-1.5-6.5-3.6-9.1-6.2c-2.6-2.6-4.7-5.6-6.2-9.1C140.6,86.7,139.9,83,139.9,79z"/>
	<path d="M197.1,79c0-4,0.8-7.7,2.3-11.2c1.5-3.5,3.6-6.5,6.2-9.1c2.6-2.6,5.6-4.7,9.1-6.2c3.5-1.5,7.2-2.3,11.2-2.3
		c4,0,7.7,0.8,11.2,2.3c3.5,1.5,6.5,3.6,9.1,6.2c2.6,2.6,4.7,5.6,6.2,9.1c1.5,3.5,2.3,7.2,2.3,11.2c0,4-0.8,7.7-2.3,11.2
		c-1.5,3.5-3.6,6.5-6.2,9.1c-2.6,2.6-5.6,4.7-9.1,6.2c-3.5,1.5-7.2,2.3-11.2,2.3c-4,0-7.7-0.8-11.2-2.3c-3.5-1.5-6.5-3.6-9.1-6.2
		c-2.6-2.6-4.7-5.6-6.2-9.1C197.8,86.7,197.1,83,197.1,79z M211.5,93.3c1.9,1.9,4,3.3,6.5,4.3c2.5,1,5.1,1.5,7.7,1.5
		s5.3-0.5,7.7-1.5c2.5-1,4.7-2.5,6.5-4.3c1.9-1.9,3.3-4,4.3-6.5c1-2.5,1.5-5.1,1.5-7.7c0-2.7-0.5-5.3-1.5-7.7
		c-1-2.5-2.5-4.7-4.3-6.5c-1.9-1.9-4-3.3-6.5-4.3c-2.5-1-5.1-1.5-7.7-1.5s-5.3,0.5-7.7,1.5c-2.5,1-4.7,2.5-6.5,4.3
		c-1.9,1.9-3.3,4-4.3,6.5c-1,2.5-1.5,5.1-1.5,7.7c0,2.7,0.5,5.3,1.5,7.7C208.2,89.3,209.6,91.4,211.5,93.3z"/>
	<path d="M304.6,33.3c0-1.3,0.4-2.3,1.2-3.1c0.8-0.8,1.8-1.2,3.1-1.2c1.3,0,2.3,0.4,3.1,1.2c0.8,0.8,1.2,1.8,1.2,3.1V79
		c0,4-0.8,7.7-2.3,11.2c-1.5,3.5-3.6,6.5-6.2,9.1c-2.6,2.6-5.6,4.7-9.1,6.2c-3.5,1.5-7.2,2.3-11.2,2.3c-4,0-7.7-0.8-11.2-2.3
		c-3.5-1.5-6.5-3.6-9.1-6.2c-2.6-2.6-4.7-5.6-6.2-9.1c-1.5-3.5-2.3-7.2-2.3-11.2c0-4,0.8-7.7,2.3-11.2c1.5-3.5,3.6-6.5,6.2-9.1
		c2.6-2.6,5.6-4.7,9.1-6.2c3.5-1.5,7.2-2.3,11.2-2.3c4.4,0,8.6,1,12.7,2.9c2.8,1.4,5.2,3.2,7.4,5.4V33.3z M270.2,93.3
		c1.9,1.9,4,3.3,6.5,4.3c2.5,1,5.1,1.5,7.7,1.5c2.7,0,5.3-0.5,7.7-1.5c2.5-1,4.7-2.5,6.5-4.3c1.9-1.9,3.3-4,4.3-6.5
		c1-2.5,1.5-5.1,1.5-7.7c0-2.7-0.5-5.3-1.5-7.7c-1-2.5-2.5-4.7-4.3-6.5c-1.9-1.9-4-3.3-6.5-4.3c-2.5-1-5.1-1.5-7.7-1.5
		c-2.7,0-5.3,0.5-7.7,1.5c-2.5,1-4.7,2.5-6.5,4.3c-1.9,1.9-3.3,4-4.3,6.5c-1,2.5-1.5,5.1-1.5,7.7c0,2.7,0.5,5.3,1.5,7.7
		C266.8,89.3,268.3,91.4,270.2,93.3z"/>
	<path d="M317.1,79c0-4,0.8-7.7,2.3-11.2c1.5-3.5,3.6-6.5,6.2-9.1c2.6-2.6,5.6-4.7,9.1-6.2c3.5-1.5,7.2-2.3,11.2-2.3
		c2.5,0,5.1,0.4,7.7,1.1c2.6,0.7,5,1.8,7.2,3.1c2.4,1.4,4.2,2.9,5.6,4.7c1.4,1.8,2.2,3.6,2.4,5.4c0.2,1.2,0.2,2.3,0,3.2
		c-0.2,0.9-0.4,1.7-0.7,2.4c-0.3,0.7-0.7,1.2-1,1.5c-0.4,0.4-0.7,0.7-0.9,0.9c-4.3,4.4-8.2,8.4-11.7,12c-1.5,1.5-3.1,3.1-4.6,4.6
		c-1.5,1.5-2.9,2.9-4.1,4.1c-1.3,1.3-2.3,2.4-3.2,3.3c-0.9,0.9-1.5,1.6-1.8,1.9c1.8,0.4,3.5,0.6,5.2,0.6c3.8,0,7.3-1,10.5-2.9
		c3.1-2,5.4-4.3,6.8-7.1c0.6-1.1,1.3-1.8,2.1-2.3c0.8-0.5,1.5-0.7,2.1-0.7c1.9,0,3.1,0.8,3.7,2.3c0.6,1.5,0.5,3-0.2,4.5
		c-1.1,2.1-2.4,4-4,5.8c-1.6,1.8-3.5,3.3-5.6,4.7c-4.6,2.9-9.7,4.4-15.4,4.4c-4,0-7.7-0.8-11.2-2.3c-3.5-1.5-6.5-3.6-9.1-6.2
		c-2.6-2.6-4.7-5.6-6.2-9.1C317.9,86.7,317.1,83,317.1,79z M325.7,79c0,3.1,0.6,6,1.8,8.6c1.2,2.6,3,4.9,5.2,6.8
		c0.2-0.2,0.7-0.7,1.5-1.6c0.9-0.9,1.9-2,3.2-3.2c1.3-1.3,2.7-2.7,4.3-4.3c1.5-1.6,3.1-3.3,4.8-4.9c3.8-3.9,8.1-8.2,12.7-12.9
		c0.2-0.2,0.3-0.4,0.5-0.6c0.2-0.2,0.2-0.6,0.2-1c0-0.4-0.2-0.9-0.5-1.5c-1.7-1.9-3.6-3.3-5.8-4.1c-2.2-0.9-4.8-1.3-7.9-1.3
		c-2.7,0-5.3,0.5-7.7,1.5c-2.5,1-4.7,2.5-6.5,4.3c-1.9,1.9-3.3,4-4.3,6.5C326.2,73.8,325.7,76.4,325.7,79z"/>
	<path d="M378.1,67.9c1.5-3.5,3.6-6.5,6.2-9.1c2.6-2.6,5.6-4.7,9.1-6.2c3.5-1.5,7.2-2.3,11.2-2.3c4,0,7.7,0.8,11.2,2.3
		c3.5,1.5,6.5,3.6,9.1,6.2c2.6,2.6,4.7,5.6,6.2,9.1c1.5,3.5,2.3,7.2,2.3,11.2v24.4c0,1.3-0.4,2.3-1.2,3.1c-0.8,0.8-1.8,1.2-3.1,1.2
		c-1.3,0-2.3-0.4-3.1-1.2c-0.8-0.8-1.2-1.8-1.2-3.1V79c0-2.7-0.5-5.3-1.5-7.7c-1-2.5-2.5-4.7-4.3-6.5c-1.9-1.9-4-3.3-6.5-4.3
		c-2.5-1-5.1-1.5-7.7-1.5h-0.9c-5.4,0.2-10,2.3-13.7,6.2c-1.9,1.9-3.3,4-4.2,6.4c-0.9,2.4-1.4,4.9-1.4,7.5v24.4
		c0,1.3-0.4,2.3-1.2,3.1c-0.8,0.8-1.8,1.2-3.1,1.2c-1.3,0-2.3-0.4-3.1-1.2c-0.8-0.8-1.2-1.8-1.2-3.1V79
		C375.8,75.1,376.6,71.3,378.1,67.9z"/>
	<path d="M436.9,79c0-4,0.8-7.7,2.3-11.2c1.5-3.5,3.6-6.5,6.2-9.1c2.6-2.6,5.6-4.7,9.1-6.2c3.5-1.5,7.2-2.3,11.2-2.3
		c2.5,0,5.1,0.4,7.7,1.1c2.6,0.7,5,1.8,7.2,3.1c2.4,1.4,4.2,2.9,5.6,4.7c1.4,1.8,2.2,3.6,2.4,5.4c0.2,1.2,0.2,2.3,0,3.2
		c-0.2,0.9-0.4,1.7-0.7,2.4c-0.3,0.7-0.7,1.2-1,1.5c-0.4,0.4-0.7,0.7-0.9,0.9c-4.3,4.4-8.2,8.4-11.7,12c-1.5,1.5-3.1,3.1-4.6,4.6
		c-1.5,1.5-2.9,2.9-4.1,4.1c-1.3,1.3-2.3,2.4-3.2,3.3c-0.9,0.9-1.5,1.6-1.8,1.9c1.8,0.4,3.5,0.6,5.2,0.6c3.8,0,7.3-1,10.5-2.9
		c3.1-2,5.4-4.3,6.8-7.1c0.6-1.1,1.3-1.8,2.1-2.3c0.8-0.5,1.5-0.7,2.1-0.7c1.9,0,3.1,0.8,3.7,2.3c0.6,1.5,0.5,3-0.2,4.5
		c-1.1,2.1-2.4,4-4,5.8c-1.6,1.8-3.5,3.3-5.6,4.7c-4.6,2.9-9.7,4.4-15.4,4.4c-4,0-7.7-0.8-11.2-2.3c-3.5-1.5-6.5-3.6-9.1-6.2
		c-2.6-2.6-4.7-5.6-6.2-9.1C437.7,86.7,436.9,83,436.9,79z M445.5,79c0,3.1,0.6,6,1.8,8.6c1.2,2.6,3,4.9,5.2,6.8
		c0.2-0.2,0.7-0.7,1.5-1.6c0.9-0.9,1.9-2,3.2-3.2c1.3-1.3,2.7-2.7,4.3-4.3c1.5-1.6,3.1-3.3,4.8-4.9c3.8-3.9,8.1-8.2,12.7-12.9
		c0.2-0.2,0.3-0.4,0.5-0.6c0.2-0.2,0.2-0.6,0.2-1c0-0.4-0.2-0.9-0.5-1.5c-1.7-1.9-3.6-3.3-5.8-4.1c-2.2-0.9-4.8-1.3-7.9-1.3
		c-2.7,0-5.3,0.5-7.7,1.5c-2.5,1-4.7,2.5-6.5,4.3c-1.9,1.9-3.3,4-4.3,6.5C446,73.8,445.5,76.4,445.5,79z"/>
	<path d="M494.9,79c0-4,0.8-7.7,2.3-11.2c1.5-3.5,3.6-6.5,6.2-9.1c2.6-2.6,5.6-4.7,9.1-6.2c3.5-1.5,7.2-2.3,11.2-2.3
		c4,0,7.7,0.8,11.2,2.3c3.5,1.5,6.5,3.6,9.1,6.2c2.6,2.6,4.7,5.6,6.2,9.1c1.5,3.5,2.3,7.2,2.3,11.2c0,4-0.8,7.7-2.3,11.2
		c-1.5,3.5-3.6,6.5-6.2,9.1c-2.6,2.6-5.6,4.7-9.1,6.2c-3.5,1.5-7.2,2.3-11.2,2.3c-4,0-7.7-0.8-11.2-2.3c-3.5-1.5-6.5-3.6-9.1-6.2
		c-2.6-2.6-4.7-5.6-6.2-9.1C495.6,86.7,494.9,83,494.9,79z M509.3,93.3c1.9,1.9,4,3.3,6.5,4.3c2.5,1,5.1,1.5,7.7,1.5
		c2.7,0,5.3-0.5,7.7-1.5c2.5-1,4.7-2.5,6.5-4.3c1.9-1.9,3.3-4,4.3-6.5c1-2.5,1.5-5.1,1.5-7.7c0-2.7-0.5-5.3-1.5-7.7
		c-1-2.5-2.5-4.7-4.3-6.5c-1.9-1.9-4-3.3-6.5-4.3c-2.5-1-5.1-1.5-7.7-1.5c-2.7,0-5.3,0.5-7.7,1.5c-2.5,1-4.7,2.5-6.5,4.3
		c-1.9,1.9-3.3,4-4.3,6.5c-1,2.5-1.5,5.1-1.5,7.7c0,2.7,0.5,5.3,1.5,7.7C506,89.3,507.4,91.4,509.3,93.3z"/>
	<path d="M590.8,50.2c1.3,0,2.3,0.4,3.1,1.2c0.8,0.8,1.2,1.8,1.2,3.1c0,1.3-0.4,2.3-1.2,3.1c-0.8,0.8-1.8,1.2-3.1,1.2H572
		c-2,0-3.9,0.8-5.6,2.3c-1.5,1.7-2.3,3.6-2.3,5.6V67c0,2.1,0.8,3.9,2.3,5.5c1.5,1.5,3.4,2.3,5.6,2.3l9.4-0.1c4.5,0,8.3,1.6,11.6,4.9
		c3.3,3.3,4.9,7.1,4.9,11.6v0.2c0,3.5-0.9,6.6-2.8,9.3c-1.9,2.7-4.4,4.7-7.6,6.1c-1.5,0.7-3.6,1-6.1,1h-18.3c-1.2,0-2.3-0.3-3.1-1
		c-0.9-0.6-1.3-1.8-1.3-3.5c0-1.4,0.5-2.4,1.4-3c0.9-0.6,1.9-1,3-1h19.3c2-0.2,3.6-1.1,4.9-2.6c1.3-1.5,2-3.3,2.1-5.3v-0.1
		c0-2.1-0.8-3.9-2.3-5.5c-1.5-1.5-3.4-2.3-5.6-2.3l-9.4,0.1c-4.5,0-8.3-1.6-11.6-4.9c-3.3-3.3-4.9-7.1-4.9-11.6v-0.2
		c0-4.5,1.6-8.3,4.9-11.6c3.3-3.3,7.1-4.9,11.6-4.9H590.8z"/>
</g>
<linearGradient id="SVGID_00000123438209395938438620000010794330314663348890_" gradientUnits="userSpaceOnUse" x1="111.3634" y1="48.0767" x2="91.492" y2="-11.2281" gradientTransform="matrix(1 0 0 -1 -6.988381e-05 145.4721)">
	<stop  offset="0" style="stop-color:#D41D55"/>
	<stop  offset="0.7279" style="stop-color:#951C54"/>
</linearGradient>
<path style="fill:url(#SVGID_00000123438209395938438620000010794330314663348890_);" d="M75.3,110.5c0,0,27.9,18.1,63.2,0.3
	l-32-18.3L75.3,110.5z"/>
</svg>
